<?xml version="1.0" encoding="UTF-8"?><svg id="_レイヤー_2" xmlns="http://www.w3.org/2000/svg" viewBox="0 0 207.3 207.3"><defs><style>.cls-1{fill:none;}.cls-2{fill:#e60012;}</style></defs><g id="_レイヤー_1-2"><g id="_レイアウト用"><path class="cls-2" d="M166.54,116.1c-2.7-1.93-5.79-3.7-9.02-5.09-6.56-2.85-14.19-4.4-22.22-4.17-16.04.31-33.79,7.94-46.51,22.91,2.24-9.49,6.63-18.98,13.04-27.54,6.4-8.48,14.89-16.04,24.91-21.75,10.03-5.71,21.6-9.49,34.02-10.88,3.01-.31,6.09-.46,9.18-.54v-15.04c-45.74-23.37-91.48,23.45-137.22,0v97.58c45.74,23.37,91.48-23.45,137.22,0v-32.86c-1-.93-2.24-1.85-3.39-2.7v.08Z"/></g><rect class="cls-1" width="207.3" height="207.3"/></g></svg>