<?xml version="1.0" encoding="UTF-8"?><svg id="_レイヤー_2" xmlns="http://www.w3.org/2000/svg" viewBox="0 0 582.84 177.33"><defs><style>.cls-1{fill:none;}.cls-2{fill:#231815;}.cls-3{fill:#e60012;}</style></defs><g id="_レイヤー_1-2"><g id="_レイアウト用"><path class="cls-3" d="M166.54,101.12c-2.7-1.93-5.79-3.7-9.02-5.09-6.56-2.85-14.19-4.4-22.22-4.17-16.04.31-33.79,7.94-46.51,22.91,2.24-9.49,6.63-18.98,13.04-27.54,6.4-8.48,14.89-16.04,24.91-21.75s21.6-9.49,34.02-10.88c3.01-.31,6.09-.46,9.18-.54v-15.04c-45.74-23.37-91.48,23.45-137.22,0v97.58c45.74,23.37,91.48-23.45,137.22,0v-32.86c-1-.93-2.24-1.85-3.39-2.7v.08Z"/><path class="cls-2" d="M201.48,133.68h-19.52V39.57h19.52v94.11Z"/><path class="cls-2" d="M217.75,39.57h20.6l37.33,65.64V39.57h18.36v94.11h-19.67l-38.34-66.8v66.8h-18.36V39.57h.08Z"/><path class="cls-2" d="M380.97,49.6c2.85,4.01,4.32,8.79,4.32,14.35s-1.47,10.34-4.32,13.88c-1.62,1.93-4.01,3.78-7.17,5.4,4.78,1.77,8.41,4.47,10.88,8.33,2.47,3.78,3.63,8.41,3.63,13.81s-1.39,10.57-4.17,15.04c-1.77,2.93-4.01,5.4-6.63,7.41-3.01,2.31-6.56,3.86-10.64,4.71-4.09.85-8.48,1.23-13.27,1.23h-42.42V39.57h45.51c11.49.15,19.59,3.55,24.37,10.03h-.08ZM329.91,55.92v20.75h22.91c4.09,0,7.41-.77,9.95-2.31s3.86-4.32,3.86-8.25c0-4.4-1.7-7.25-5.01-8.72-2.93-1-6.63-1.47-11.11-1.47h-20.6ZM329.91,92.25v25.07h22.83c4.09,0,7.25-.54,9.56-1.62,4.09-2.08,6.17-5.94,6.17-11.72,0-4.94-2.01-8.25-6.02-10.1-2.24-1-5.4-1.54-9.41-1.62h-23.14Z"/><path class="cls-2" d="M466.98,56.23h-49.83v19.98h45.74v16.35h-45.74v24.22h52.07v16.89h-71.35V39.57h69.04v16.66h.08Z"/><path class="cls-2" d="M490.89,104.6c.62,4.32,1.77,7.56,3.55,9.64,3.24,3.86,8.87,5.79,16.74,5.79,4.71,0,8.56-.54,11.57-1.54,5.63-1.93,8.41-5.63,8.41-10.88,0-3.09-1.39-5.48-4.09-7.25-2.78-1.7-7.1-3.16-13.04-4.4l-10.18-2.24c-10.03-2.24-16.89-4.63-20.67-7.25-6.33-4.32-9.49-11.11-9.49-20.36,0-8.41,3.09-15.43,9.26-20.98,6.25-5.55,15.35-8.33,27.38-8.33,10.03,0,18.59,2.62,25.69,7.87s10.8,12.88,11.18,22.91h-18.9c-.39-5.63-2.85-9.72-7.56-12.11-3.16-1.54-7.02-2.39-11.72-2.39-5.17,0-9.33,1-12.42,3.09-3.09,2.01-4.63,4.86-4.63,8.56,0,3.39,1.54,5.86,4.55,7.56,1.93,1.08,6.09,2.39,12.5,3.86l16.51,3.93c7.25,1.7,12.65,4.01,16.28,6.87,5.63,4.4,8.41,10.8,8.41,19.21s-3.32,15.74-9.95,21.44c-6.63,5.71-16.04,8.48-28.15,8.48s-22.14-2.78-29.23-8.41c-7.1-5.63-10.64-13.27-10.64-23.06h18.74-.08Z"/><rect class="cls-1" width="582.84" height="177.33"/></g></g></svg>