<!-- Iconoir 7.11.0 / MIT License / https://iconoir.com -->
<svg xmlns="http://www.w3.org/2000/svg">
  <symbol id="arrow-right" viewBox="0 0 24 24">
<path d="M3 12L21 12M21 12L12.5 3.5M21 12L12.5 20.5" stroke="currentColor" stroke-linecap="round" stroke-linejoin="round"/>
  </symbol>
  <symbol id="arrow-up-right" viewBox="0 0 24 24">
<path d="M6.00005 19L19 5.99996M19 5.99996V18.48M19 5.99996H6.52005" stroke="currentColor" stroke-linecap="round" stroke-linejoin="round"/>
  </symbol>
  <symbol id="arrow-up-right-square" viewBox="0 0 24 24">
<path d="M9.17137 14.8284L14.8282 9.17152M14.8282 9.17152H9.87848M14.8282 9.17152V14.1213" stroke="currentColor" stroke-linecap="round" stroke-linejoin="round"/>
<path d="M21 3.6V20.4C21 20.7314 20.7314 21 20.4 21H3.6C3.26863 21 3 20.7314 3 20.4V3.6C3 3.26863 3.26863 3 3.6 3H20.4C20.7314 3 21 3.26863 21 3.6Z" stroke="currentColor" stroke-linecap="round" stroke-linejoin="round"/>
  </symbol>
  <symbol id="battery-charging" viewBox="0 0 24 24">
<path d="M23 10V14" stroke="currentColor" stroke-linecap="round" stroke-linejoin="round"/>
<path d="M1 16V8C1 6.89543 1.89543 6 3 6H18C19.1046 6 20 6.89543 20 8V16C20 17.1046 19.1046 18 18 18H3C1.89543 18 1 17.1046 1 16Z" stroke="currentColor" stroke-width="1.5"/>
<path d="M10.1667 9L8.5 12H12.5L10.8333 15" stroke="currentColor" stroke-linecap="round" stroke-linejoin="round"/>
  </symbol>
  <symbol id="badge-check" viewBox="0 0 24 24">
<path d="M10.5213 2.62368C11.3147 1.75255 12.6853 1.75255 13.4787 2.62368L14.4989 3.74391C14.8998 4.18418 15.4761 4.42288 16.071 4.39508L17.5845 4.32435C18.7614 4.26934 19.7307 5.23857 19.6757 6.41554L19.6049 7.92905C19.5771 8.52388 19.8158 9.10016 20.2561 9.50111L21.3763 10.5213C22.2475 11.3147 22.2475 12.6853 21.3763 13.4787L20.2561 14.4989C19.8158 14.8998 19.5771 15.4761 19.6049 16.071L19.6757 17.5845C19.7307 18.7614 18.7614 19.7307 17.5845 19.6757L16.071 19.6049C15.4761 19.5771 14.8998 19.8158 14.4989 20.2561L13.4787 21.3763C12.6853 22.2475 11.3147 22.2475 10.5213 21.3763L9.50111 20.2561C9.10016 19.8158 8.52388 19.5771 7.92905 19.6049L6.41553 19.6757C5.23857 19.7307 4.26934 18.7614 4.32435 17.5845L4.39508 16.071C4.42288 15.4761 4.18418 14.8998 3.74391 14.4989L2.62368 13.4787C1.75255 12.6853 1.75255 11.3147 2.62368 10.5213L3.74391 9.50111C4.18418 9.10016 4.42288 8.52388 4.39508 7.92905L4.32435 6.41553C4.26934 5.23857 5.23857 4.26934 6.41554 4.32435L7.92905 4.39508C8.52388 4.42288 9.10016 4.18418 9.50111 3.74391L10.5213 2.62368Z" stroke="currentColor" stroke-width="1.5"/>
<path d="M9 12L11 14L15 10" stroke="currentColor" stroke-linecap="round" stroke-linejoin="round"/>
  </symbol>
  <symbol id="car" viewBox="0 0 24 24">
<path d="M8 10L16 10" stroke="currentColor" stroke-linecap="round" stroke-linejoin="round"/>
<path d="M7 14L8 14" stroke="currentColor" stroke-linecap="round" stroke-linejoin="round"/>
<path d="M16 14L17 14" stroke="currentColor" stroke-linecap="round" stroke-linejoin="round"/>
<path d="M3 18V11.4105C3 11.1397 3.05502 10.8716 3.16171 10.6227L5.4805 5.21216C5.79566 4.47679 6.51874 4 7.31879 4H16.6812C17.4813 4 18.2043 4.47679 18.5195 5.21216L20.8383 10.6227C20.945 10.8716 21 11.1397 21 11.4105V18M3 18V20.4C3 20.7314 3.26863 21 3.6 21H6.4C6.73137 21 7 20.7314 7 20.4V18M3 18H7M21 18V20.4C21 20.7314 20.7314 21 20.4 21H17.6C17.2686 21 17 20.7314 17 20.4V18M21 18H17M7 18H17" stroke="currentColor" stroke-width="1.5"/>
  </symbol>
  <symbol id="check" viewBox="0 0 24 24">
<path d="M5 13L9 17L19 7" stroke="currentColor" stroke-linecap="round" stroke-linejoin="round"/>
  </symbol>
  <symbol id="check-circle" viewBox="0 0 24 24">
<path d="M7 12.5L10 15.5L17 8.5" stroke="currentColor" stroke-linecap="round" stroke-linejoin="round"/>
<path d="M12 22C17.5228 22 22 17.5228 22 12C22 6.47715 17.5228 2 12 2C6.47715 2 2 6.47715 2 12C2 17.5228 6.47715 22 12 22Z" stroke="currentColor" stroke-linecap="round" stroke-linejoin="round"/>
  </symbol>
  <symbol id="computer" viewBox="0 0 24 24">
<path d="M2 21L17 21" stroke="currentColor" stroke-linecap="round" stroke-linejoin="round"/>
<path d="M21 21L22 21" stroke="currentColor" stroke-linecap="round" stroke-linejoin="round"/>
<path d="M2 16.4V3.6C2 3.26863 2.26863 3 2.6 3H21.4C21.7314 3 22 3.26863 22 3.6V16.4C22 16.7314 21.7314 17 21.4 17H2.6C2.26863 17 2 16.7314 2 16.4Z" stroke="currentColor" stroke-width="1.5"/>
  </symbol>
  <symbol id="clipboard-check" viewBox="0 0 24 24">
<path d="M8.5 4H6C4.89543 4 4 4.89543 4 6V20C4 21.1046 4.89543 22 6 22H12" stroke="currentColor"  stroke-linecap="round"/>
<path d="M15.5 4H18C19.1046 4 20 4.89543 20 6V15" stroke="currentColor"  stroke-linecap="round"/>
<path d="M8 6.4V4.5C8 4.22386 8.22386 4 8.5 4C8.77614 4 9.00422 3.77604 9.05152 3.50398C9.19968 2.65171 9.77399 1 12 1C14.226 1 14.8003 2.65171 14.9485 3.50398C14.9958 3.77604 15.2239 4 15.5 4C15.7761 4 16 4.22386 16 4.5V6.4C16 6.73137 15.7314 7 15.4 7H8.6C8.26863 7 8 6.73137 8 6.4Z" stroke="currentColor"  stroke-linecap="round"/>
<path d="M15.5 20.5L17.5 22.5L22.5 17.5" stroke="currentColor"  stroke-linecap="round" stroke-linejoin="round"/>
  </symbol>
  <symbol id="delivery-truck" viewBox="0 0 24 24">
<path d="M8 19C9.10457 19 10 18.1046 10 17C10 15.8954 9.10457 15 8 15C6.89543 15 6 15.8954 6 17C6 18.1046 6.89543 19 8 19Z" stroke="currentColor"   stroke-miterlimit="1.5" stroke-linecap="round" stroke-linejoin="round"/>
<path d="M18 19C19.1046 19 20 18.1046 20 17C20 15.8954 19.1046 15 18 15C16.8954 15 16 15.8954 16 17C16 18.1046 16.8954 19 18 19Z" stroke="currentColor"   stroke-miterlimit="1.5" stroke-linecap="round" stroke-linejoin="round"/>
<path d="M10.05 17H15V6.6C15 6.26863 14.7314 6 14.4 6H1" stroke="currentColor"   stroke-linecap="round"/>
<path d="M5.65 17H3.6C3.26863 17 3 16.7314 3 16.4V11.5" stroke="currentColor"   stroke-linecap="round"/>
<path d="M2 9L6 9" stroke="currentColor"   stroke-linecap="round" stroke-linejoin="round"/>
<path d="M15 9H20.6101C20.8472 9 21.0621 9.13964 21.1584 9.35632L22.9483 13.3836C22.9824 13.4604 23 13.5434 23 13.6273V16.4C23 16.7314 22.7314 17 22.4 17H20.5" stroke="currentColor"   stroke-linecap="round"/>
<path d="M15 17H16" stroke="currentColor"   stroke-linecap="round"/>
  </symbol>
  <symbol id="design-pencil" viewBox="0 0 24 24">
<path d="M12 2C6.47715 2 2 6.47715 2 12C2 17.5228 6.47715 22 12 22C17.5228 22 22 17.5228 22 12C22 6.47715 17.5228 2 12 2Z" stroke="currentColor" stroke-linecap="round" stroke-linejoin="round"/>
<path d="M8 21.1679V14L12 7L16 14V21.1679" stroke="currentColor" stroke-linecap="round" stroke-linejoin="round"/>
<path d="M8 14C8 14 9.12676 15 10 15C10.8732 15 12 14 12 14C12 14 13.1268 15 14 15C14.8732 15 16 14 16 14" stroke="currentColor" stroke-linecap="round" stroke-linejoin="round"/>
  </symbol>
  <symbol id="download" viewBox="0 0 24 24">
<path d="M6 20L18 20" stroke="currentColor" stroke-linecap="round" stroke-linejoin="round"/>
<path d="M12 4V16M12 16L15.5 12.5M12 16L8.5 12.5" stroke="currentColor" stroke-linecap="round" stroke-linejoin="round"/>
  </symbol>
  <symbol id="info-circle" viewBox="0 0 24 24">
<path d="M12 11.5V16.5" stroke="currentColor" stroke-linecap="round" stroke-linejoin="round"/>
<path d="M12 7.51L12.01 7.49889" stroke="currentColor" stroke-linecap="round" stroke-linejoin="round"/>
<path d="M12 22C17.5228 22 22 17.5228 22 12C22 6.47715 17.5228 2 12 2C6.47715 2 2 6.47715 2 12C2 17.5228 6.47715 22 12 22Z" stroke="currentColor" stroke-linecap="round" stroke-linejoin="round"/>
  </symbol>
  <symbol id="industry" viewBox="0 0 24 24">
<path d="M18 10C18 9 17 8 15 8C14.6978 8 14.355 8 14.0002 8C12.3434 8 11 6.65685 11 5V2" stroke="currentColor" stroke-linecap="round" stroke-linejoin="round"/>
<path d="M18 21H21V12H18V16.5M18 21V16.5M18 21L3 21V17L6.5 14L10.5 16.5L14.5 14L18 16.5" stroke="currentColor" stroke-linecap="round" stroke-linejoin="round"/>
<path d="M21 10C21 4 17 4 17 4C17 4 21 4.5 21 2" stroke="currentColor" stroke-linecap="round" stroke-linejoin="round"/>
  </symbol>
  <symbol id="light-bulb" viewBox="0 0 24 24">
<path d="M9 18H15" stroke="currentColor" stroke-linecap="round" stroke-linejoin="round"/>
<path d="M10 21H14" stroke="currentColor" stroke-linecap="round" stroke-linejoin="round"/>
<path d="M9.00082 15C9.00098 13 8.50098 12.5 7.50082 11.5C6.50067 10.5 6.02422 9.48689 6.00082 8C5.95284 4.95029 8.00067 3 12.0008 3C16.001 3 18.0488 4.95029 18.0008 8C17.9774 9.48689 17.5007 10.5 16.5008 11.5C15.501 12.5 15.001 13 15.0008 15" stroke="currentColor" stroke-linecap="round" stroke-linejoin="round"/>
  </symbol>
  <symbol id="menu" viewBox="0 0 24 24">
<path d="M3 5H21" stroke="currentColor" stroke-linecap="round" stroke-linejoin="round"/>
<path d="M3 12H21" stroke="currentColor" stroke-linecap="round" stroke-linejoin="round"/>
<path d="M3 19H21" stroke="currentColor" stroke-linecap="round" stroke-linejoin="round"/>
  </symbol>
  <symbol id="media-image" viewBox="0 0 24 24">
<path d="M21 3.6V20.4C21 20.7314 20.7314 21 20.4 21H3.6C3.26863 21 3 20.7314 3 20.4V3.6C3 3.26863 3.26863 3 3.6 3H20.4C20.7314 3 21 3.26863 21 3.6Z" stroke="currentColor"  stroke-linecap="round" stroke-linejoin="round"/>
<path d="M3 16L10 13L21 18" stroke="currentColor"  stroke-linecap="round" stroke-linejoin="round"/>
<path d="M16 10C14.8954 10 14 9.10457 14 8C14 6.89543 14.8954 6 16 6C17.1046 6 18 6.89543 18 8C18 9.10457 17.1046 10 16 10Z" stroke="currentColor"  stroke-linecap="round" stroke-linejoin="round"/>
  </symbol>
  <symbol id="nav-arrow-left" viewBox="0 0 24 24">
<path d="M15 6L9 12L15 18" stroke="currentColor" stroke-linecap="round" stroke-linejoin="round"/>
  </symbol>
  <symbol id="nav-arrow-right" viewBox="0 0 24 24">
<path d="M9 6L15 12L9 18" stroke="currentColor" stroke-linecap="round" stroke-linejoin="round"/>
  </symbol>
  <symbol id="package" viewBox="0 0 24 24">
<path d="M20 5.99999L20 18C20 19.1046 19.1046 20 18 20H6C4.89543 20 4 19.1046 4 18V6C4 4.89543 4.89543 4 6 4H18C19.1045 4 19.9999 4.89543 20 5.99999Z" stroke="currentColor"   stroke-linecap="round" stroke-linejoin="round"/>
<path d="M12 9V4" stroke="currentColor"   stroke-linecap="round" stroke-linejoin="round"/>
  </symbol>
  <symbol id="phone" viewBox="0 0 24 24">
<path d="M18.1182 14.702L14 15.5C11.2183 14.1038 9.5 12.5 8.5 10L9.26995 5.8699L7.81452 2L4.0636 2C2.93605 2 2.04814 2.93178 2.21654 4.04668C2.63695 6.83 3.87653 11.8765 7.5 15.5C11.3052 19.3052 16.7857 20.9564 19.802 21.6127C20.9668 21.8662 22 20.9575 22 19.7655L22 16.1812L18.1182 14.702Z" stroke="currentColor" stroke-linecap="round" stroke-linejoin="round"/>
  </symbol>
  <symbol id="printer" viewBox="0 0 24 24">
<path d="M17 13.01L17.01 12.9989" stroke="currentColor" stroke-linecap="round" stroke-linejoin="round"/>
<path d="M7 17H17M6 10V3.6C6 3.26863 6.26863 3 6.6 3H17.4C17.7314 3 18 3.26863 18 3.6V10M21 20.4V14C21 11.7909 19.2091 10 17 10H7C4.79086 10 3 11.7909 3 14V20.4C3 20.7314 3.26863 21 3.6 21H20.4C20.7314 21 21 20.7314 21 20.4Z" stroke="currentColor" stroke-linecap="round" stroke-linejoin="round"/>
  </symbol>
  <symbol id="plus" viewBox="0 0 24 24">
<path d="M6 12H12M18 12H12M12 12V6M12 12V18" stroke="currentColor" stroke-linecap="round" stroke-linejoin="round"/>
  </symbol>
  <symbol id="search" viewBox="0 0 24 24">
<path d="M17 17L21 21" stroke="currentColor" stroke-linecap="round" stroke-linejoin="round"/>
<path d="M3 11C3 15.4183 6.58172 19 11 19C13.213 19 15.2161 18.1015 16.6644 16.6493C18.1077 15.2022 19 13.2053 19 11C19 6.58172 15.4183 3 11 3C6.58172 3 3 6.58172 3 11Z" stroke="currentColor" stroke-linecap="round" stroke-linejoin="round"/>
  </symbol>
  <symbol id="settings" viewBox="0 0 24 24">
<path d="M12 15C13.6569 15 15 13.6569 15 12C15 10.3431 13.6569 9 12 9C10.3431 9 9 10.3431 9 12C9 13.6569 10.3431 15 12 15Z" stroke="currentColor" stroke-linecap="round" stroke-linejoin="round"/>
<path d="M19.6224 10.3954L18.5247 7.7448L20 6L18 4L16.2647 5.48295L13.5578 4.36974L12.9353 2H10.981L10.3491 4.40113L7.70441 5.51596L6 4L4 6L5.45337 7.78885L4.3725 10.4463L2 11V13L4.40111 13.6555L5.51575 16.2997L4 18L6 20L7.79116 18.5403L10.397 19.6123L11 22H13L13.6045 19.6132L16.2551 18.5155C16.6969 18.8313 18 20 18 20L20 18L18.5159 16.2494L19.6139 13.598L21.9999 12.9772L22 11L19.6224 10.3954Z" stroke="currentColor" stroke-linecap="round" stroke-linejoin="round"/>
  </symbol>
  <symbol id="shield-check" viewBox="0 0 24 24">
<path d="M8.5 11.5L11.5 14.5L16.5 9.5" stroke="currentColor" stroke-linecap="round" stroke-linejoin="round"/>
<path d="M5 18L3.13036 4.91253C3.05646 4.39524 3.39389 3.91247 3.90398 3.79912L11.5661 2.09641C11.8519 2.03291 12.1481 2.03291 12.4339 2.09641L20.096 3.79912C20.6061 3.91247 20.9435 4.39524 20.8696 4.91252L19 18C18.9293 18.495 18.5 21.5 12 21.5C5.5 21.5 5.07071 18.495 5 18Z" stroke="currentColor" stroke-linecap="round" stroke-linejoin="round"/>
  </symbol>
  <symbol id="warning-triangle" viewBox="0 0 24 24">
<path d="M20.0429 21H3.95705C2.41902 21 1.45658 19.3364 2.22324 18.0031L10.2662 4.01533C11.0352 2.67792 12.9648 2.67791 13.7338 4.01532L21.7768 18.0031C22.5434 19.3364 21.581 21 20.0429 21Z" stroke="currentColor" stroke-linecap="round"/>
<path d="M12 9V13" stroke="currentColor" stroke-linecap="round"/>
<path d="M12 17.01L12.01 16.9989" stroke="currentColor" stroke-linecap="round" stroke-linejoin="round"/>
  </symbol>
  <symbol id="xmark" viewBox="0 0 24 24">
<path d="M6.75827 17.2426L12.0009 12M17.2435 6.75736L12.0009 12M12.0009 12L6.75827 6.75736M12.0009 12L17.2435 17.2426" stroke="currentColor" stroke-linecap="round" stroke-linejoin="round"/>
  </symbol>
  <symbol id="xmark-circle" viewBox="0 0 24 24">
<path d="M9.17218 14.8284L12.0006 12M14.829 9.17157L12.0006 12M12.0006 12L9.17218 9.17157M12.0006 12L14.829 14.8284" stroke="currentColor" stroke-linecap="round" stroke-linejoin="round"/>
<path d="M12 22C17.5228 22 22 17.5228 22 12C22 6.47715 17.5228 2 12 2C6.47715 2 2 6.47715 2 12C2 17.5228 6.47715 22 12 22Z" stroke="currentColor" stroke-linecap="round" stroke-linejoin="round"/>
  </symbol>
</svg>
