<!-- Iconoir 7.11.0 / MIT License / https://iconoir.com -->
<svg xmlns="http://www.w3.org/2000/svg">
  <symbol id="arrow-right" viewBox="0 0 24 24">
<path d="M3 12L21 12M21 12L12.5 3.5M21 12L12.5 20.5" stroke="currentColor" stroke-linecap="round" stroke-linejoin="round"/>
  </symbol>
  <symbol id="arrow-up-right" viewBox="0 0 24 24">
<path d="M6.00005 19L19 5.99996M19 5.99996V18.48M19 5.99996H6.52005" stroke="currentColor" stroke-linecap="round" stroke-linejoin="round"/>
  </symbol>
  <symbol id="battery-charging" viewBox="0 0 24 24">
<path d="M23 10V14" stroke="currentColor" stroke-linecap="round" stroke-linejoin="round"/>
<path d="M1 16V8C1 6.89543 1.89543 6 3 6H18C19.1046 6 20 6.89543 20 8V16C20 17.1046 19.1046 18 18 18H3C1.89543 18 1 17.1046 1 16Z" stroke="currentColor" stroke-width="1.5"/>
<path d="M10.1667 9L8.5 12H12.5L10.8333 15" stroke="currentColor" stroke-linecap="round" stroke-linejoin="round"/>
  </symbol>
  <symbol id="car" viewBox="0 0 24 24">
<path d="M8 10L16 10" stroke="currentColor" stroke-linecap="round" stroke-linejoin="round"/>
<path d="M7 14L8 14" stroke="currentColor" stroke-linecap="round" stroke-linejoin="round"/>
<path d="M16 14L17 14" stroke="currentColor" stroke-linecap="round" stroke-linejoin="round"/>
<path d="M3 18V11.4105C3 11.1397 3.05502 10.8716 3.16171 10.6227L5.4805 5.21216C5.79566 4.47679 6.51874 4 7.31879 4H16.6812C17.4813 4 18.2043 4.47679 18.5195 5.21216L20.8383 10.6227C20.945 10.8716 21 11.1397 21 11.4105V18M3 18V20.4C3 20.7314 3.26863 21 3.6 21H6.4C6.73137 21 7 20.7314 7 20.4V18M3 18H7M21 18V20.4C21 20.7314 20.7314 21 20.4 21H17.6C17.2686 21 17 20.7314 17 20.4V18M21 18H17M7 18H17" stroke="currentColor" stroke-width="1.5"/>
  </symbol>
  <symbol id="check" viewBox="0 0 24 24">
<path d="M5 13L9 17L19 7" stroke="currentColor" stroke-linecap="round" stroke-linejoin="round"/>
  </symbol>
  <symbol id="check-circle" viewBox="0 0 24 24">
<path d="M7 12.5L10 15.5L17 8.5" stroke="currentColor" stroke-linecap="round" stroke-linejoin="round"/>
<path d="M12 22C17.5228 22 22 17.5228 22 12C22 6.47715 17.5228 2 12 2C6.47715 2 2 6.47715 2 12C2 17.5228 6.47715 22 12 22Z" stroke="currentColor" stroke-linecap="round" stroke-linejoin="round"/>
  </symbol>
  <symbol id="computer" viewBox="0 0 24 24">
<path d="M2 21L17 21" stroke="currentColor" stroke-linecap="round" stroke-linejoin="round"/>
<path d="M21 21L22 21" stroke="currentColor" stroke-linecap="round" stroke-linejoin="round"/>
<path d="M2 16.4V3.6C2 3.26863 2.26863 3 2.6 3H21.4C21.7314 3 22 3.26863 22 3.6V16.4C22 16.7314 21.7314 17 21.4 17H2.6C2.26863 17 2 16.7314 2 16.4Z" stroke="currentColor" stroke-width="1.5"/>
  </symbol>
  <symbol id="download" viewBox="0 0 24 24">
<path d="M6 20L18 20" stroke="currentColor" stroke-linecap="round" stroke-linejoin="round"/>
<path d="M12 4V16M12 16L15.5 12.5M12 16L8.5 12.5" stroke="currentColor" stroke-linecap="round" stroke-linejoin="round"/>
  </symbol>
  <symbol id="info-circle" viewBox="0 0 24 24">
<path d="M12 11.5V16.5" stroke="currentColor" stroke-linecap="round" stroke-linejoin="round"/>
<path d="M12 7.51L12.01 7.49889" stroke="currentColor" stroke-linecap="round" stroke-linejoin="round"/>
<path d="M12 22C17.5228 22 22 17.5228 22 12C22 6.47715 17.5228 2 12 2C6.47715 2 2 6.47715 2 12C2 17.5228 6.47715 22 12 22Z" stroke="currentColor" stroke-linecap="round" stroke-linejoin="round"/>
  </symbol>
  <symbol id="media-image" viewBox="0 0 24 24">
<path d="M21 3.6V20.4C21 20.7314 20.7314 21 20.4 21H3.6C3.26863 21 3 20.7314 3 20.4V3.6C3 3.26863 3.26863 3 3.6 3H20.4C20.7314 3 21 3.26863 21 3.6Z" stroke="currentColor"  stroke-linecap="round" stroke-linejoin="round"/>
<path d="M3 16L10 13L21 18" stroke="currentColor"  stroke-linecap="round" stroke-linejoin="round"/>
<path d="M16 10C14.8954 10 14 9.10457 14 8C14 6.89543 14.8954 6 16 6C17.1046 6 18 6.89543 18 8C18 9.10457 17.1046 10 16 10Z" stroke="currentColor"  stroke-linecap="round" stroke-linejoin="round"/>
  </symbol>
  <symbol id="nav-arrow-left" viewBox="0 0 24 24">
<path d="M15 6L9 12L15 18" stroke="currentColor" stroke-linecap="round" stroke-linejoin="round"/>
  </symbol>
  <symbol id="nav-arrow-right" viewBox="0 0 24 24">
<path d="M9 6L15 12L9 18" stroke="currentColor" stroke-linecap="round" stroke-linejoin="round"/>
  </symbol>
  <symbol id="package" viewBox="0 0 24 24">
<path d="M20 5.99999L20 18C20 19.1046 19.1046 20 18 20H6C4.89543 20 4 19.1046 4 18V6C4 4.89543 4.89543 4 6 4H18C19.1045 4 19.9999 4.89543 20 5.99999Z" stroke="currentColor"   stroke-linecap="round" stroke-linejoin="round"/>
<path d="M12 9V4" stroke="currentColor"   stroke-linecap="round" stroke-linejoin="round"/>
  </symbol>
  <symbol id="plus" viewBox="0 0 24 24">
<path d="M6 12H12M18 12H12M12 12V6M12 12V18" stroke="currentColor" stroke-linecap="round" stroke-linejoin="round"/>
  </symbol>
  <symbol id="search" viewBox="0 0 24 24">
<path d="M17 17L21 21" stroke="currentColor" stroke-linecap="round" stroke-linejoin="round"/>
<path d="M3 11C3 15.4183 6.58172 19 11 19C13.213 19 15.2161 18.1015 16.6644 16.6493C18.1077 15.2022 19 13.2053 19 11C19 6.58172 15.4183 3 11 3C6.58172 3 3 6.58172 3 11Z" stroke="currentColor" stroke-linecap="round" stroke-linejoin="round"/>
  </symbol>
  <symbol id="shield-check" viewBox="0 0 24 24">
<path d="M8.5 11.5L11.5 14.5L16.5 9.5" stroke="currentColor" stroke-linecap="round" stroke-linejoin="round"/>
<path d="M5 18L3.13036 4.91253C3.05646 4.39524 3.39389 3.91247 3.90398 3.79912L11.5661 2.09641C11.8519 2.03291 12.1481 2.03291 12.4339 2.09641L20.096 3.79912C20.6061 3.91247 20.9435 4.39524 20.8696 4.91252L19 18C18.9293 18.495 18.5 21.5 12 21.5C5.5 21.5 5.07071 18.495 5 18Z" stroke="currentColor" stroke-linecap="round" stroke-linejoin="round"/>
  </symbol>
  <symbol id="warning-triangle" viewBox="0 0 24 24">
<path d="M20.0429 21H3.95705C2.41902 21 1.45658 19.3364 2.22324 18.0031L10.2662 4.01533C11.0352 2.67792 12.9648 2.67791 13.7338 4.01532L21.7768 18.0031C22.5434 19.3364 21.581 21 20.0429 21Z" stroke="currentColor" stroke-linecap="round"/>
<path d="M12 9V13" stroke="currentColor" stroke-linecap="round"/>
<path d="M12 17.01L12.01 16.9989" stroke="currentColor" stroke-linecap="round" stroke-linejoin="round"/>
  </symbol>
  <symbol id="xmark" viewBox="0 0 24 24">
<path d="M6.75827 17.2426L12.0009 12M17.2435 6.75736L12.0009 12M12.0009 12L6.75827 6.75736M12.0009 12L17.2435 17.2426" stroke="currentColor" stroke-linecap="round" stroke-linejoin="round"/>
  </symbol>
  <symbol id="xmark-circle" viewBox="0 0 24 24">
<path d="M9.17218 14.8284L12.0006 12M14.829 9.17157L12.0006 12M12.0006 12L9.17218 9.17157M12.0006 12L14.829 14.8284" stroke="currentColor" stroke-linecap="round" stroke-linejoin="round"/>
<path d="M12 22C17.5228 22 22 17.5228 22 12C22 6.47715 17.5228 2 12 2C6.47715 2 2 6.47715 2 12C2 17.5228 6.47715 22 12 22Z" stroke="currentColor" stroke-linecap="round" stroke-linejoin="round"/>
  </symbol>
</svg>
